<?xml version="1.0" encoding="UTF-8" standalone="no"?>
<!-- Created with Inkscape (http://www.inkscape.org/) -->

<svg
   width="48"
   height="48"
   viewBox="0 0 48 48"
   version="1.1"
   id="svg5"
   inkscape:version="1.2.2 (b0a8486541, 2022-12-01)"
   sodipodi:docname="simplytranslate-icon.svg"
   inkscape:export-filename="./simplytranslate-icon.png"
   inkscape:export-xdpi="512"
   inkscape:export-ydpi="512"
   xmlns:inkscape="http://www.inkscape.org/namespaces/inkscape"
   xmlns:sodipodi="http://sodipodi.sourceforge.net/DTD/sodipodi-0.dtd"
   xmlns="http://www.w3.org/2000/svg"
   xmlns:svg="http://www.w3.org/2000/svg">
  <sodipodi:namedview
     id="namedview7"
     pagecolor="#505050"
     bordercolor="#eeeeee"
     borderopacity="1"
     inkscape:pageshadow="0"
     inkscape:pageopacity="0"
     inkscape:pagecheckerboard="0"
     inkscape:document-units="px"
     showgrid="false"
     units="px"
     showguides="false"
     inkscape:zoom="16"
     inkscape:cx="10.25"
     inkscape:cy="21.625"
     inkscape:window-width="1888"
     inkscape:window-height="1060"
     inkscape:window-x="32"
     inkscape:window-y="0"
     inkscape:window-maximized="1"
     inkscape:current-layer="layer1"
     inkscape:showpageshadow="2"
     inkscape:deskcolor="#505050" />
  <defs
     id="defs2">
    <inkscape:path-effect
       effect="fillet_chamfer"
       id="path-effect35261"
       is_visible="true"
       lpeversion="1"
       satellites_param="F,0,0,1,0,0,0,1 @ F,0,0,1,0,0,0,1 @ F,0,0,1,0,0,0,1 @ F,0,0,1,0,0,0,1 @ F,0,0,1,0,0,0,1 @ F,0,0,1,0,0,0,1 @ F,0,0,1,0,0,0,1 @ F,0,0,1,0,0,0,1 @ F,0,0,1,0,0,0,1 @ F,0,0,1,0,0,0,1 @ F,0,0,1,0,0,0,1 @ F,0,0,1,0,0,0,1 @ F,0,0,1,0,0,0,1 @ F,0,0,1,0,0,0,1 @ F,0,0,1,0,0,0,1 @ F,0,0,1,0,0,0,1 @ F,0,0,1,0,0,0,1 @ F,0,0,1,0,0,0,1 @ F,0,0,1,0,0,0,1 @ F,0,0,1,0,0,0,1 @ F,0,0,1,0,0,0,1 @ F,0,0,1,0,0,0,1 @ F,0,0,1,0,0,0,1 @ F,0,0,1,0,0,0,1 @ F,0,0,1,0,0,0,1 @ F,0,0,1,0,0,0,1 @ F,0,0,1,0,0,0,1 @ F,0,0,1,0,0,0,1"
       unit="px"
       method="auto"
       mode="F"
       radius="1"
       chamfer_steps="1"
       flexible="false"
       use_knot_distance="true"
       apply_no_radius="true"
       apply_with_radius="true"
       only_selected="false"
       hide_knots="false"
       nodesatellites_param="F,0,0,1,0,0,0,1 @ F,0,0,1,0,0,0,1 @ F,0,0,1,0,0,0,1 @ F,0,0,1,0,0,0,1 @ F,0,0,1,0,0,0,1 @ F,0,0,1,0,0,0,1 @ F,0,0,1,0,0,0,1 @ F,0,0,1,0,0,0,1 @ F,0,0,1,0,0,0,1 @ F,0,0,1,0,0,0,1 @ F,0,0,1,0,0,0,1 @ F,0,0,1,0,0,0,1 @ F,0,0,1,0,0,0,1 @ F,0,0,1,0,0,0,1 @ F,0,0,1,0,0,0,1 @ F,0,0,1,0,0,0,1 @ F,0,0,1,0,0,0,1 @ F,0,0,1,0,0,0,1 @ F,0,0,1,0,0,0,1 @ F,0,0,1,0,0,0,1 @ F,0,0,1,0,0,0,1 @ F,0,0,1,0,0,0,1 @ F,0,0,1,0,0,0,1 @ F,0,0,1,0,0,0,1 @ F,0,0,1,0,0,0,1 @ F,0,0,1,0,0,0,1 @ F,0,0,1,0,0,0,1 @ F,0,0,1,0,0,0,1" />
    <style
       id="style967">.a{fill:none;stroke:#fff;stroke-linecap:round;stroke-linejoin:round;}</style>
  </defs>
  <g
     inkscape:label="Layer 1"
     inkscape:groupmode="layer"
     id="layer1">
    <text
       xml:space="preserve"
       style="font-style:normal;font-weight:normal;font-size:40px;line-height:1.25;font-family:sans-serif;fill:#000000;fill-opacity:1;stroke:none"
       x="22.98719"
       y="13.623002"
       id="text6936"><tspan
         sodipodi:role="line"
         id="tspan6934" /></text>
    <path
       class="a"
       d="M 40.5,5.5 H 7.4999999 a 2,2 0 0 0 -2,2 v 33 a 2,2 0 0 0 2,2 H 40.5 a 2,2 0 0 0 2,-2 v -33 a 2,2 0 0 0 -2,-2 z"
       id="path971"
       style="fill:#478061;stroke:#478061;fill-opacity:1;stroke-opacity:1;stroke-width:0.386;stroke-miterlimit:4;stroke-dasharray:none" />
    <path
       id="path39667"
       style="fill:#000000;stroke:#000000;stroke-width:0.386016px;stroke-linecap:round;stroke-linejoin:round;opacity:0.27331517"
       d="M 24.205078 9.390625 C 21.835278 9.390625 19.901697 10.074206 18.404297 11.441406 C 16.906897 12.808606 16.158203 14.579406 16.158203 16.753906 C 16.158203 18.843069 16.845521 20.544838 18.21875 21.859375 C 18.261981 21.903309 18.30491 21.947129 18.349609 21.990234 C 18.406972 22.048962 18.465418 22.106808 18.525391 22.164062 C 18.566964 22.206189 18.607464 22.249652 18.650391 22.291016 C 18.698527 22.340239 18.746903 22.389312 18.796875 22.4375 C 18.852004 22.493948 18.907303 22.550381 18.964844 22.605469 C 19.007401 22.648712 19.04977 22.691934 19.09375 22.734375 C 19.149494 22.791498 19.20546 22.848566 19.263672 22.904297 C 19.31043 22.951814 19.357774 22.998373 19.40625 23.044922 C 19.45521 23.094821 19.503837 23.144527 19.554688 23.193359 C 19.601237 23.240827 19.647052 23.289434 19.695312 23.335938 C 19.743449 23.385161 19.791825 23.434234 19.841797 23.482422 C 19.896926 23.53887 19.952225 23.595303 20.009766 23.650391 C 20.052999 23.694322 20.095923 23.738147 20.140625 23.78125 C 20.197984 23.839981 20.256437 23.897819 20.316406 23.955078 C 20.357983 23.997203 20.398477 24.04067 20.441406 24.082031 C 20.48954 24.131255 20.537922 24.180327 20.587891 24.228516 C 20.643023 24.284963 20.698315 24.341397 20.755859 24.396484 C 20.799014 24.440338 20.842101 24.484316 20.886719 24.527344 C 20.941849 24.583791 20.997146 24.640226 21.054688 24.695312 C 21.101444 24.742828 21.14879 24.789391 21.197266 24.835938 C 21.246226 24.885839 21.294852 24.93554 21.345703 24.984375 C 21.392256 25.03184 21.438065 25.080453 21.486328 25.126953 C 21.534462 25.176179 21.582844 25.225245 21.632812 25.273438 C 21.687945 25.329882 21.743237 25.386322 21.800781 25.441406 C 21.844012 25.485338 21.886941 25.529163 21.931641 25.572266 C 21.989003 25.630996 22.047449 25.688835 22.107422 25.746094 C 22.148996 25.788219 22.189495 25.831685 22.232422 25.873047 C 22.280558 25.922273 22.328934 25.97134 22.378906 26.019531 C 22.434035 26.075976 22.489335 26.132415 22.546875 26.1875 C 22.59003 26.231355 22.633117 26.275329 22.677734 26.318359 C 22.732864 26.374804 22.788163 26.431244 22.845703 26.486328 C 22.892461 26.533846 22.939805 26.580405 22.988281 26.626953 C 23.037244 26.676852 23.085865 26.726559 23.136719 26.775391 C 23.183269 26.822856 23.229083 26.871468 23.277344 26.917969 C 23.32548 26.967195 23.373856 27.016262 23.423828 27.064453 C 23.478957 27.120898 23.534257 27.177337 23.591797 27.232422 C 23.635631 27.276965 23.679266 27.321543 23.724609 27.365234 C 23.779123 27.421005 23.833756 27.476809 23.890625 27.53125 C 23.937386 27.578767 23.984725 27.625326 24.033203 27.671875 C 24.078669 27.718212 24.122826 27.765129 24.169922 27.810547 C 24.225052 27.866995 24.28035 27.923428 24.337891 27.978516 C 24.381045 28.022369 24.424132 28.066348 24.46875 28.109375 C 24.52388 28.16582 24.579178 28.222259 24.636719 28.277344 C 24.679953 28.321277 24.722876 28.365098 24.767578 28.408203 C 24.824937 28.466931 24.88339 28.524776 24.943359 28.582031 C 24.984936 28.624158 25.02543 28.667621 25.068359 28.708984 C 25.116493 28.758208 25.164875 28.80728 25.214844 28.855469 C 25.269976 28.911916 25.325269 28.96835 25.382812 29.023438 C 25.426644 29.067978 25.470285 29.112561 25.515625 29.15625 C 25.570142 29.212023 25.624769 29.267821 25.681641 29.322266 C 25.728398 29.36978 25.775743 29.416345 25.824219 29.462891 C 25.869685 29.509229 25.91384 29.556144 25.960938 29.601562 C 26.016067 29.65801 26.071366 29.714444 26.128906 29.769531 C 26.172061 29.813385 26.215148 29.857363 26.259766 29.900391 C 26.314898 29.956838 26.37019 30.013272 26.427734 30.068359 C 26.470966 30.112291 26.513894 30.156116 26.558594 30.199219 C 26.615956 30.25795 26.674402 30.315788 26.734375 30.373047 C 26.775949 30.415171 26.816448 30.458639 26.859375 30.5 C 26.907511 30.549226 26.955888 30.598293 27.005859 30.646484 C 27.060989 30.702929 27.116288 30.759369 27.173828 30.814453 C 27.216985 30.858306 27.260066 30.902286 27.304688 30.945312 C 27.359817 31.00176 27.415116 31.058194 27.472656 31.113281 C 27.519415 31.160796 27.566759 31.20736 27.615234 31.253906 C 27.664194 31.303808 27.712821 31.353509 27.763672 31.402344 C 27.810223 31.449809 27.856036 31.498421 27.904297 31.544922 C 27.952433 31.594148 28.000809 31.643215 28.050781 31.691406 C 28.10591 31.747851 28.16121 31.804291 28.21875 31.859375 C 28.261984 31.903309 28.304907 31.947129 28.349609 31.990234 C 28.404739 32.046679 28.460038 32.103119 28.517578 32.158203 C 28.561451 32.202784 28.605005 32.247288 28.650391 32.291016 C 28.698524 32.340242 28.746906 32.389309 28.796875 32.4375 C 28.852007 32.493945 28.9073 32.550384 28.964844 32.605469 C 29.007998 32.649324 29.051086 32.693298 29.095703 32.736328 C 29.150833 32.792773 29.206131 32.849212 29.263672 32.904297 C 29.31043 32.951814 29.357774 32.998373 29.40625 33.044922 C 29.455211 33.09482 29.503837 33.144527 29.554688 33.193359 C 29.601241 33.240827 29.647049 33.289434 29.695312 33.335938 C 29.743446 33.38516 29.791828 33.434234 29.841797 33.482422 C 29.848234 33.489013 29.854858 33.495381 29.861328 33.501953 C 29.588613 34.105077 29.196282 34.636928 28.677734 35.09375 C 27.690305 35.974094 26.399793 36.447451 24.814453 36.523438 C 24.804763 36.514003 24.775606 36.484224 24.761719 36.470703 L 24.769531 36.470703 C 24.769531 36.470703 24.656171 36.360216 24.617188 36.322266 C 24.616885 36.321971 24.504102 36.21205 24.464844 36.173828 L 24.470703 36.173828 C 24.470703 36.173828 24.356232 36.062207 24.316406 36.023438 L 24.322266 36.023438 C 24.322266 36.023438 24.208886 35.912936 24.169922 35.875 C 24.169616 35.874703 24.05565 35.763573 24.015625 35.724609 L 24.023438 35.724609 C 24.023438 35.724609 23.910047 35.614093 23.871094 35.576172 C 23.870791 35.575877 23.757982 35.465926 23.71875 35.427734 L 23.724609 35.427734 C 23.724609 35.427734 23.610108 35.316088 23.570312 35.277344 L 23.576172 35.277344 C 23.576172 35.277344 23.462767 35.166816 23.423828 35.128906 C 23.423523 35.128609 23.309526 35.017453 23.269531 34.978516 L 23.277344 34.978516 C 23.277344 34.978516 23.163924 34.867977 23.125 34.830078 C 23.124695 34.829781 23.01076 34.718685 22.970703 34.679688 L 22.978516 34.679688 C 22.978516 34.679688 22.865085 34.569138 22.826172 34.53125 C 22.82587 34.530956 22.71302 34.420969 22.673828 34.382812 L 22.679688 34.382812 C 22.679688 34.382812 22.565145 34.271124 22.525391 34.232422 L 22.53125 34.232422 C 22.53125 34.232422 22.417805 34.121854 22.378906 34.083984 C 22.378601 34.083688 22.264563 33.97249 22.224609 33.933594 L 22.232422 33.933594 C 22.232422 33.933594 22.118966 33.823015 22.080078 33.785156 C 22.079776 33.784862 21.966896 33.674844 21.927734 33.636719 L 21.933594 33.636719 C 21.933594 33.636719 21.819025 33.525004 21.779297 33.486328 L 21.785156 33.486328 C 21.785156 33.486328 21.671682 33.375734 21.632812 33.337891 C 21.632509 33.337594 21.518439 33.226374 21.478516 33.1875 L 21.486328 33.1875 C 21.486328 33.1875 21.372842 33.076895 21.333984 33.039062 C 21.33368 33.038767 21.219673 32.927602 21.179688 32.888672 L 21.1875 32.888672 C 21.1875 32.888672 21.074003 32.778056 21.035156 32.740234 C 21.034855 32.739941 20.921934 32.629885 20.882812 32.591797 L 20.888672 32.591797 C 20.888672 32.591797 20.774062 32.480045 20.734375 32.441406 L 20.740234 32.441406 C 20.740234 32.441406 20.626719 32.330772 20.587891 32.292969 C 20.587586 32.292673 20.473479 32.181411 20.433594 32.142578 L 20.441406 32.142578 C 20.441406 32.142578 20.32788 32.031933 20.289062 31.994141 C 20.288757 31.993843 20.174786 31.882713 20.134766 31.84375 L 20.142578 31.84375 C 20.142578 31.84375 20.029041 31.733093 19.990234 31.695312 C 19.989933 31.695019 19.876971 31.584922 19.837891 31.546875 L 19.84375 31.546875 C 19.84375 31.546875 19.729098 31.435085 19.689453 31.396484 L 19.695312 31.396484 C 19.695312 31.396484 19.581757 31.285813 19.542969 31.248047 C 19.542665 31.247751 19.428589 31.136522 19.388672 31.097656 L 19.396484 31.097656 C 19.396484 31.097656 19.282917 30.986974 19.244141 30.949219 C 19.243839 30.948926 19.130851 30.838807 19.091797 30.800781 L 19.097656 30.800781 C 19.097656 30.800781 18.982974 30.688962 18.943359 30.650391 L 18.949219 30.650391 C 18.949219 30.650391 18.835641 30.539694 18.796875 30.501953 C 18.796571 30.501657 18.682396 30.390327 18.642578 30.351562 L 18.650391 30.351562 C 18.650391 30.351562 18.536802 30.24085 18.498047 30.203125 C 18.496105 30.201234 17.545395 29.273211 17.515625 29.244141 L 17.513672 29.242188 C 17.513672 29.242188 16.559197 28.312303 16.529297 28.283203 L 16.527344 28.28125 L 15.541016 29.242188 L 14.554688 30.203125 L 14.855469 30.203125 L 14.703125 30.351562 L 15.007812 30.351562 L 14.853516 30.501953 L 15.154297 30.501953 L 15.001953 30.650391 L 15.306641 30.650391 L 15.152344 30.800781 L 15.439453 30.800781 C 15.4397 30.804718 15.439202 30.808566 15.439453 30.8125 L 15.300781 30.949219 L 15.453125 30.949219 C 15.456664 30.995117 15.460723 31.040384 15.464844 31.085938 L 15.451172 31.097656 L 15.464844 31.097656 C 15.586518 32.425954 15.95166 33.609877 16.568359 34.644531 C 16.897245 35.181771 17.280141 35.664294 17.712891 36.097656 C 17.754316 36.141497 17.799365 36.181775 17.841797 36.224609 C 17.897037 36.283542 17.954673 36.339356 18.011719 36.396484 C 18.056934 36.444336 18.105929 36.488504 18.152344 36.535156 C 18.196563 36.582109 18.243693 36.626073 18.289062 36.671875 C 18.344392 36.730897 18.403797 36.786539 18.460938 36.84375 C 18.502075 36.887271 18.545761 36.928174 18.587891 36.970703 C 18.643133 37.029633 18.700765 37.085453 18.757812 37.142578 C 18.803028 37.19043 18.852022 37.234597 18.898438 37.28125 C 18.942658 37.328203 18.989785 37.372167 19.035156 37.417969 C 19.090485 37.476991 19.149892 37.532631 19.207031 37.589844 C 19.248167 37.633367 19.291856 37.674266 19.333984 37.716797 C 19.389313 37.775819 19.44872 37.83146 19.505859 37.888672 C 19.546995 37.932193 19.590684 37.973096 19.632812 38.015625 C 19.688055 38.074555 19.745687 38.130375 19.802734 38.1875 C 19.847948 38.235352 19.896946 38.279519 19.943359 38.326172 C 19.98758 38.373124 20.034707 38.417089 20.080078 38.462891 C 20.135407 38.521913 20.194814 38.577553 20.251953 38.634766 C 20.293091 38.678287 20.336777 38.719189 20.378906 38.761719 C 20.434149 38.820649 20.49178 38.876468 20.548828 38.933594 C 20.590248 38.97743 20.635308 39.017717 20.677734 39.060547 C 20.728556 39.114761 20.781635 39.166063 20.833984 39.21875 C 20.886238 39.274313 20.942231 39.326906 20.996094 39.380859 C 21.037526 39.424708 21.082561 39.464971 21.125 39.507812 C 21.180327 39.566835 21.239738 39.622475 21.296875 39.679688 C 21.338013 39.723208 21.381698 39.764112 21.423828 39.806641 C 21.479069 39.865571 21.536705 39.92139 21.59375 39.978516 C 21.638966 40.026367 21.687961 40.070535 21.734375 40.117188 C 21.778595 40.16414 21.825722 40.208104 21.871094 40.253906 C 21.926423 40.312931 21.98583 40.368567 22.042969 40.425781 C 22.084107 40.469303 22.127792 40.510205 22.169922 40.552734 C 22.225165 40.611665 22.282796 40.667483 22.339844 40.724609 C 22.381269 40.76845 22.426318 40.808729 22.46875 40.851562 C 22.523991 40.910494 22.581626 40.96631 22.638672 41.023438 C 22.683887 41.071289 22.732882 41.115457 22.779297 41.162109 C 22.823516 41.209062 22.870646 41.253026 22.916016 41.298828 C 22.971345 41.357851 23.030752 41.413491 23.087891 41.470703 C 23.129027 41.514225 23.172716 41.555127 23.214844 41.597656 C 23.270087 41.656589 23.327718 41.712403 23.384766 41.769531 C 23.429981 41.817383 23.478976 41.861551 23.525391 41.908203 C 23.569611 41.955156 23.616738 41.99912 23.662109 42.044922 C 23.717439 42.103944 23.776844 42.159585 23.833984 42.216797 C 23.875122 42.260318 23.918808 42.301221 23.960938 42.34375 C 24.011236 42.397406 24.064916 42.448212 24.117188 42.5 L 40.5 42.5 A 2 2 0 0 0 42.5 40.5 L 42.5 24.130859 C 42.46698 24.098038 42.433458 24.065914 42.400391 24.033203 C 42.393674 24.026211 42.387605 24.018693 42.380859 24.011719 C 42.344328 23.973949 42.306563 23.939216 42.269531 23.902344 C 42.257073 23.889296 42.244982 23.876268 42.232422 23.863281 C 42.183121 23.812311 42.132244 23.764178 42.082031 23.714844 C 42.04691 23.678531 42.010194 23.644858 41.974609 23.609375 C 41.960559 23.594634 41.947775 23.579116 41.933594 23.564453 C 41.891381 23.520812 41.847568 23.479942 41.804688 23.4375 C 41.797947 23.430484 41.791926 23.423014 41.785156 23.416016 C 41.748227 23.377834 41.709316 23.34195 41.671875 23.304688 C 41.659418 23.29164 41.647325 23.278611 41.634766 23.265625 C 41.595645 23.22518 41.555319 23.187851 41.515625 23.148438 C 41.505703 23.138074 41.496315 23.127512 41.486328 23.117188 C 41.443474 23.072876 41.399012 23.031355 41.355469 22.988281 C 41.348753 22.981289 41.342683 22.973771 41.335938 22.966797 C 41.299404 22.929027 41.261643 22.894294 41.224609 22.857422 C 41.212152 22.844375 41.20006 22.831345 41.1875 22.818359 C 41.14529 22.774715 41.101472 22.733851 41.058594 22.691406 C 41.051833 22.684367 41.045853 22.676943 41.039062 22.669922 C 41.002131 22.63174 40.963224 22.595858 40.925781 22.558594 C 40.913323 22.545546 40.901232 22.532518 40.888672 22.519531 C 40.846462 22.47589 40.802644 22.43502 40.759766 22.392578 C 40.753026 22.385562 40.747004 22.378092 40.740234 22.371094 C 40.69738 22.326786 40.652918 22.285259 40.609375 22.242188 C 40.602659 22.235195 40.59659 22.227678 40.589844 22.220703 C 40.553313 22.182933 40.515547 22.1482 40.478516 22.111328 C 40.466058 22.098282 40.453967 22.085251 40.441406 22.072266 C 40.398552 22.027958 40.35409 21.986431 40.310547 21.943359 C 40.303831 21.936367 40.297761 21.92885 40.291016 21.921875 C 40.254484 21.884105 40.216718 21.849372 40.179688 21.8125 C 40.16723 21.799454 40.155139 21.786422 40.142578 21.773438 C 40.100368 21.729796 40.05655 21.688927 40.013672 21.646484 C 40.006933 21.639468 40.000909 21.631999 39.994141 21.625 C 39.957209 21.586819 39.918302 21.550936 39.880859 21.513672 C 39.868402 21.500625 39.85631 21.487595 39.84375 21.474609 C 39.804632 21.434162 39.764301 21.396839 39.724609 21.357422 C 39.714688 21.347059 39.705298 21.336496 39.695312 21.326172 C 39.652456 21.281864 39.607999 21.240337 39.564453 21.197266 C 39.557737 21.190273 39.551668 21.182756 39.544922 21.175781 C 39.508391 21.138011 39.470626 21.103278 39.433594 21.066406 C 39.421137 21.05336 39.409044 21.040329 39.396484 21.027344 C 39.354272 20.983702 39.310459 20.942833 39.267578 20.900391 C 39.260817 20.893351 39.254838 20.885928 39.248047 20.878906 C 39.211118 20.840725 39.172206 20.804842 39.134766 20.767578 C 39.122308 20.754532 39.110217 20.741501 39.097656 20.728516 C 39.055446 20.684874 39.011628 20.644005 38.96875 20.601562 C 38.962011 20.594546 38.955988 20.587077 38.949219 20.580078 C 38.906365 20.535771 38.861903 20.494244 38.818359 20.451172 C 38.811643 20.44418 38.805574 20.436661 38.798828 20.429688 C 38.762297 20.391917 38.724532 20.357185 38.6875 20.320312 C 38.675043 20.307265 38.66295 20.294236 38.650391 20.28125 C 38.607536 20.236942 38.563074 20.195416 38.519531 20.152344 C 38.512815 20.145352 38.506746 20.137834 38.5 20.130859 C 38.463469 20.093089 38.425704 20.058356 38.388672 20.021484 C 38.376215 20.008438 38.364123 19.995407 38.351562 19.982422 C 38.309354 19.938781 38.265534 19.897911 38.222656 19.855469 C 38.215895 19.848429 38.209916 19.841006 38.203125 19.833984 C 38.166196 19.795803 38.127284 19.75992 38.089844 19.722656 C 38.077387 19.70961 38.065294 19.696579 38.052734 19.683594 C 38.010522 19.639952 37.966709 19.599083 37.923828 19.556641 C 37.917089 19.549624 37.911066 19.542155 37.904297 19.535156 C 37.861443 19.490849 37.81698 19.449322 37.773438 19.40625 C 37.766722 19.399258 37.760652 19.39174 37.753906 19.384766 C 37.717373 19.346996 37.679612 19.312263 37.642578 19.275391 C 37.63012 19.262343 37.618029 19.249314 37.605469 19.236328 C 37.563259 19.192687 37.519441 19.151817 37.476562 19.109375 C 37.469803 19.102336 37.463822 19.094912 37.457031 19.087891 C 37.4201 19.049709 37.381193 19.013827 37.34375 18.976562 C 37.331292 18.963516 37.319201 18.950486 37.306641 18.9375 C 37.264431 18.893859 37.220613 18.852989 37.177734 18.810547 C 37.170995 18.803531 37.164972 18.796062 37.158203 18.789062 C 37.120632 18.750217 37.081069 18.713677 37.042969 18.675781 C 37.031186 18.66345 37.019687 18.650949 37.007812 18.638672 C 36.968694 18.598227 36.928364 18.560899 36.888672 18.521484 C 36.87875 18.511121 36.869362 18.50056 36.859375 18.490234 C 36.816521 18.44593 36.772059 18.404397 36.728516 18.361328 C 36.7218 18.354336 36.71573 18.346818 36.708984 18.339844 C 36.672453 18.302074 36.634688 18.267341 36.597656 18.230469 C 36.585198 18.217421 36.573107 18.204393 36.560547 18.191406 C 36.518337 18.147765 36.474519 18.106895 36.431641 18.064453 C 36.42488 18.057414 36.4189 18.04999 36.412109 18.042969 C 36.37518 18.004787 36.336269 17.968904 36.298828 17.931641 C 36.28637 17.918593 36.274279 17.905564 36.261719 17.892578 C 36.219509 17.848937 36.175691 17.808067 36.132812 17.765625 C 36.126073 17.758609 36.12005 17.751139 36.113281 17.744141 C 36.070427 17.699833 36.025965 17.658306 35.982422 17.615234 C 35.975706 17.608243 35.969637 17.600724 35.962891 17.59375 C 35.926359 17.55598 35.888594 17.521247 35.851562 17.484375 C 35.839106 17.471329 35.827013 17.458298 35.814453 17.445312 C 35.765152 17.394343 35.714275 17.34621 35.664062 17.296875 C 35.628941 17.260562 35.592225 17.226889 35.556641 17.191406 C 35.542589 17.176666 35.529807 17.161147 35.515625 17.146484 C 35.473415 17.102846 35.429597 17.061971 35.386719 17.019531 C 35.37998 17.012515 35.373956 17.005045 35.367188 16.998047 C 35.324658 16.954075 35.28149 16.911896 35.238281 16.869141 C 35.231236 16.861803 35.223875 16.854974 35.216797 16.847656 C 35.180266 16.809886 35.1425 16.775153 35.105469 16.738281 C 35.093012 16.725235 35.080919 16.712204 35.068359 16.699219 C 35.025505 16.654911 34.981043 16.613384 34.9375 16.570312 C 34.930784 16.56332 34.924715 16.555803 34.917969 16.548828 C 34.881438 16.511058 34.843672 16.476325 34.806641 16.439453 C 34.794184 16.426407 34.782091 16.413376 34.769531 16.400391 C 34.727321 16.356749 34.683503 16.31588 34.640625 16.273438 C 34.633864 16.266399 34.627885 16.258974 34.621094 16.251953 C 34.584165 16.213772 34.545254 16.177889 34.507812 16.140625 C 34.495356 16.127579 34.483263 16.114548 34.470703 16.101562 C 34.428493 16.057921 34.384675 16.017052 34.341797 15.974609 C 34.335057 15.967593 34.329035 15.960123 34.322266 15.953125 C 34.279411 15.908817 34.234949 15.867291 34.191406 15.824219 C 34.18469 15.817227 34.17862 15.809709 34.171875 15.802734 C 34.135344 15.764967 34.097579 15.730229 34.060547 15.693359 C 34.048089 15.680313 34.035998 15.667282 34.023438 15.654297 C 33.980583 15.609989 33.936121 15.568462 33.892578 15.525391 C 33.885862 15.518398 33.879793 15.510881 33.873047 15.503906 C 33.836516 15.466139 33.79875 15.431401 33.761719 15.394531 C 33.749262 15.381485 33.737169 15.368454 33.724609 15.355469 C 33.6824 15.311827 33.638581 15.270958 33.595703 15.228516 C 33.588942 15.221476 33.582963 15.214053 33.576172 15.207031 C 33.539243 15.16885 33.500331 15.132967 33.462891 15.095703 C 33.450434 15.082657 33.438341 15.069626 33.425781 15.056641 C 33.386663 15.016196 33.346333 14.978868 33.306641 14.939453 C 33.296719 14.92909 33.28733 14.918528 33.277344 14.908203 C 33.23449 14.863896 33.190027 14.822368 33.146484 14.779297 C 33.139769 14.772305 33.133699 14.764788 33.126953 14.757812 C 33.090422 14.720042 33.052657 14.685309 33.015625 14.648438 C 33.003167 14.63539 32.991076 14.622361 32.978516 14.609375 C 32.936306 14.565734 32.892487 14.524864 32.849609 14.482422 C 32.842849 14.475383 32.836869 14.467959 32.830078 14.460938 C 32.793149 14.422757 32.754237 14.386871 32.716797 14.349609 C 32.704339 14.336563 32.692248 14.323532 32.679688 14.310547 C 32.637478 14.266906 32.593659 14.226036 32.550781 14.183594 C 32.544042 14.176577 32.538019 14.169108 32.53125 14.162109 C 32.488396 14.117805 32.443934 14.076272 32.400391 14.033203 C 32.393674 14.026211 32.387605 14.018693 32.380859 14.011719 C 32.344328 13.973949 32.306563 13.939216 32.269531 13.902344 C 32.257073 13.889296 32.244982 13.876268 32.232422 13.863281 C 32.18957 13.818977 32.145103 13.777444 32.101562 13.734375 C 32.094848 13.727383 32.088777 13.719865 32.082031 13.712891 C 32.0455 13.675121 32.007735 13.640388 31.970703 13.603516 C 31.958245 13.590469 31.946154 13.577439 31.933594 13.564453 C 31.891387 13.520812 31.847563 13.479942 31.804688 13.4375 C 31.797927 13.430461 31.791947 13.423037 31.785156 13.416016 C 31.748227 13.377834 31.709316 13.34195 31.671875 13.304688 C 31.659417 13.29164 31.647326 13.278611 31.634766 13.265625 C 31.592556 13.221984 31.548737 13.181114 31.505859 13.138672 C 31.49912 13.131655 31.493097 13.124185 31.486328 13.117188 C 31.443474 13.072882 31.399012 13.03135 31.355469 12.988281 C 31.348752 12.981289 31.342682 12.973771 31.335938 12.966797 C 31.299406 12.929027 31.261641 12.894294 31.224609 12.857422 C 31.212152 12.844375 31.20006 12.831346 31.1875 12.818359 C 31.14529 12.774721 31.101472 12.733846 31.058594 12.691406 C 31.051833 12.684367 31.045854 12.676943 31.039062 12.669922 C 31.002133 12.63174 30.963222 12.595858 30.925781 12.558594 C 30.913324 12.545546 30.901232 12.532518 30.888672 12.519531 C 30.846462 12.475893 30.802644 12.435018 30.759766 12.392578 C 30.753026 12.385562 30.747004 12.378092 30.740234 12.371094 C 30.697704 12.327122 30.654536 12.284941 30.611328 12.242188 C 30.604283 12.234851 30.596922 12.228021 30.589844 12.220703 C 30.553315 12.182935 30.515545 12.148198 30.478516 12.111328 C 30.466059 12.098281 30.453966 12.085252 30.441406 12.072266 C 30.398552 12.027961 30.35409 11.986428 30.310547 11.943359 C 30.303831 11.936368 30.297762 11.928849 30.291016 11.921875 C 30.254487 11.884105 30.216717 11.849372 30.179688 11.8125 C 30.167231 11.799453 30.155138 11.786423 30.142578 11.773438 C 28.606278 10.185136 26.626478 9.390815 24.205078 9.390625 z " />
    <g
       id="g15133"
       transform="matrix(0.64227027,0,0,0.64227027,-15.275186,-45.367611)">
      <polyline
         class="st0"
         points="63.8,101 61.2,93 58.5,101   "
         id="polyline15129" />
      <line
         class="st0"
         x1="59.400002"
         y1="98.300003"
         x2="62.900002"
         y2="98.300003"
         id="line15131" />
    </g>
    <g
       id="path33996" />
    <g
       id="path34177" />
    <g
       id="g17153"
       transform="matrix(0.64227027,0,0,0.64227027,8.7500022,8.5520441)">
      <path
         style="fill:none;stroke:#ffffff;stroke-width:1px;stroke-linecap:round;stroke-linejoin:miter;stroke-opacity:1"
         d="m 19.792122,31.555225 h 7.904173"
         id="path16798" />
      <path
         style="fill:none;stroke:#ffffff;stroke-width:1px;stroke-linecap:round;stroke-linejoin:miter;stroke-opacity:1"
         d="m 26.1674,31.596349 c 0,0 -0.879776,4.573392 -5.113091,6.866763"
         id="path16866" />
      <path
         style="fill:none;stroke:#ffffff;stroke-width:1px;stroke-linecap:round;stroke-linejoin:miter;stroke-opacity:1"
         d="M 26.262905,38.481686 C 25.267597,38.031795 22.0344,34.63603 21.648922,33.22501"
         id="path16901"
         sodipodi:nodetypes="cc" />
      <path
         style="fill:none;stroke:#ffffff;stroke-width:1px;stroke-linecap:round;stroke-linejoin:miter;stroke-opacity:1"
         d="M 23.663218,31.460063 V 30.433904"
         id="path16936" />
    </g>
    <path
       id="path35934"
       style="fill:#ffffff;stroke:#ffffff;stroke-width:0.386016;stroke-linecap:round;stroke-linejoin:round"
       inkscape:transform-center-y="0.32012888"
       d="m 33.292005,17.78074 h -1.97289 -1.972892 l 0.986446,0.960387 0.986446,0.960385 0.986445,-0.960385 z M 18.500601,30.202889 h -1.97289 -1.972892 l 0.986446,-0.960386 0.986446,-0.960386 0.986445,0.960386 z m 11.817758,1.023673 q 0,-2.382812 -1.367187,-3.75 -1.347656,-1.367187 -5.058594,-2.617187 -3.710937,-1.25 -5.449219,-2.792969 -2.285156,-2.011719 -2.285156,-5.3125 0,-3.261718 2.246094,-5.3125 2.246094,-2.050781 5.800781,-2.050781 3.632813,0 5.9375,2.382813 2.304688,2.382812 2.304688,6.132812 h -2.246094 q 0,-2.871094 -1.621094,-4.628906 Q 26.978516,11.5 24.205078,11.5 q -2.695312,0 -4.257812,1.464844 -1.542969,1.445312 -1.542969,3.75 0,2.148437 1.464844,3.515625 1.464843,1.367187 4.667968,2.441406 3.203125,1.054687 4.84375,2.207031 1.640625,1.132813 2.421876,2.675781 0.781249,1.542969 0.781249,3.632813 0,3.339844 -2.265625,5.390625 -2.246093,2.03125 -5.957031,2.03125 -2.5,0 -4.570312,-1.015625 -2.050782,-1.035156 -3.222657,-2.949219 -1.152343,-1.933594 -1.152343,-4.550781 h 2.226561 q 0,3.007812 1.816407,4.726562 1.816407,1.71875 4.902344,1.71875 2.695313,0 4.316406,-1.445312 1.640625,-1.445313 1.640625,-3.867188 z" />
  </g>
  <style
     type="text/css"
     id="style14976">
	.st0{fill:none;stroke:#FFFFFF;stroke-linecap:round;stroke-linejoin:round;stroke-miterlimit:10;}
	.st1{fill:#FFFFFF;}
	.st2{fill:none;stroke:#FFFFFF;stroke-width:0.9976;stroke-linecap:round;stroke-linejoin:round;stroke-miterlimit:10;}
	.st3{fill:none;stroke:#FFFFFF;stroke-width:0.9965;stroke-linecap:round;stroke-linejoin:round;stroke-miterlimit:10;}
	.st4{fill:none;stroke:#FFFFFF;stroke-width:0.8662;stroke-linecap:round;stroke-linejoin:round;stroke-miterlimit:10;}
</style>
  <style
     type="text/css"
     id="style44917">
	.st0{fill:none;stroke:#FFFFFF;stroke-linecap:round;stroke-linejoin:round;stroke-miterlimit:10;}
	.st1{fill:#FFFFFF;}
	.st2{fill:none;stroke:#FFFFFF;stroke-width:0.9976;stroke-linecap:round;stroke-linejoin:round;stroke-miterlimit:10;}
	.st3{fill:none;stroke:#FFFFFF;stroke-width:0.9965;stroke-linecap:round;stroke-linejoin:round;stroke-miterlimit:10;}
	.st4{fill:none;stroke:#FFFFFF;stroke-width:0.8662;stroke-linecap:round;stroke-linejoin:round;stroke-miterlimit:10;}
</style>
</svg>
